# Made in Blockbench 4.12.4
mtllib anti_air.mtl

o circle
v 0 0 0
v 0.041866875 0 0.15625
v 0.114383125 0 0.114383125
v 0.15625 0 0.041866875
v 0.15625 0 -0.041866875
v 0.114383125 0 -0.114383125
v 0.041866875 0 -0.15625
v -0.041866875 0 -0.15625
v -0.114383125 0 -0.114383125
v -0.15625 0 -0.041866875
v -0.15625 0 0.041866875
v -0.114383125 0 0.114383125
v -0.041866875 0 0.15625
vt 0 0.4823625
vt 0.25881875 0.5517118750000001
vt 0 1
vt 0.5 0.73205
vt 0.5 1
vt 0 0.866025
vt 0.517638125 0.741181875
vt 0.4482875 1
vt 0 0.741181875
vt 0.5176375 0.74118125
vt 0.448288125 1
vt 0 0.74118125
vt 0.26795 1
vt 0 1
vt 0.133975 0.5
vt 0.258818125 1
vt 0 0.930649375
vt 0.258818125 0.48236187500000005
vt 0.25881875 1
vt 0 0.930650625
vt 0.25881875 0.4823625
vt 0 1
vt 0 0.73205
vt 0.5 0.866025
vt 0 1
vt 0.069350625 0.741181875
vt 0.517638125 1
vt 0 1
vt 0.069349375 0.74118125
vt 0.5176375 1
vt 0 0.5
vt 0.26795 0.5
vt 0.133975 1
vt 0 0.48236187500000005
vt 0.258818125 0.5517125
vt 0 1
vn 0 1 0
vn 0 1 0
vn 0 1 0
vn 0 1 0
vn 0 1 0
vn 0 1 0
vn 0 1 0
vn 0 1 0
vn 0 1 0
vn 0 1 0
vn 0 1 0
vn 0 1 0
usemtl none
f 3/1/1 4/2/1 1/3/1
f 4/4/2 5/5/2 1/6/2
f 5/7/3 6/8/3 1/9/3
f 6/10/4 7/11/4 1/12/4
f 7/13/5 8/14/5 1/15/5
f 8/16/6 9/17/6 1/18/6
f 9/19/7 10/20/7 1/21/7
f 10/22/8 11/23/8 1/24/8
f 11/25/9 12/26/9 1/27/9
f 12/28/10 13/29/10 1/30/10
f 13/31/11 2/32/11 1/33/11
f 2/34/12 3/35/12 1/36/12
o cuboid
v 0.0625 0.0625 0.0625
v 0.0625 0.0625 -0.0625
v 0.0625 0 0.0625
v 0.0625 0 -0.0625
v -0.0625 0.0625 0.0625
v -0.0625 0.0625 -0.0625
v -0.0625 0 0.0625
v -0.0625 0 -0.0625
vt 0.25 1
vt 0 1
vt 0 0.75
vt 0.25 0.75
vt 0.25 0.75
vt 0.25 1
vt 0 1
vt 0 0.75
vt 0 0.75
vt 0.25 0.75
vt 0.25 1
vt 0 1
vt 0.25 0.75
vt 0.25 1
vt 0 1
vt 0 0.75
vt 0.25 0.75
vt 0.25 1
vt 0 1
vt 0 0.75
vt 0.25 1
vt 0 1
vt 0 0.75
vt 0.25 0.75
vn 1 0 0
vn -1 0 0
vn 0 1 0
vn 0 -1 0
vn 0 0 1
vn 0 0 -1
usemtl none
f 15/37/13 14/38/13 16/39/13 17/40/13
f 20/41/14 18/42/14 19/43/14 21/44/14
f 18/45/15 14/46/15 15/47/15 19/48/15
f 17/49/16 16/50/16 20/51/16 21/52/16
f 16/53/17 14/54/17 18/55/17 20/56/17
f 19/57/18 15/58/18 17/59/18 21/60/18
o cuboid
v 0.46791919488634787 0.3019060984870561 0.015625
v 0.46791919488634787 0.3019060984870561 -0.015625
v 0.005979428630704529 0.11056438230451114 0.015625
v 0.005979428630704529 0.11056438230451114 -0.015625
v 0.45596033762493876 0.33077733387803376 0.015625
v 0.45596033762493876 0.33077733387803376 -0.015625
v -0.005979428630704529 0.13943561769548884 0.015625
v -0.005979428630704529 0.13943561769548884 -0.015625
vt 0.125 1
vt 0 1
vt 0 0.5
vt 0.125 0.5
vt 0.125 0.5
vt 0.125 1
vt 0 1
vt 0 0.5
vt 0 0.875
vt 0.125 0.875
vt 0.125 1
vt 0 1
vt 0.125 0.875
vt 0.125 1
vt 0 1
vt 0 0.875
vt 0.125 0.5
vt 0.125 1
vt 0 1
vt 0 0.5
vt 0.125 1
vt 0 1
vt 0 0.5
vt 0.125 0.5
vn 0.38268343236508984 -0.9238795325112866 0
vn -0.38268343236508984 0.9238795325112866 0
vn 0.9238795325112866 0.38268343236508984 0
vn -0.9238795325112866 -0.38268343236508984 0
vn 0 0 1
vn 0 0 -1
usemtl none
f 23/61/19 22/62/19 24/63/19 25/64/19
f 28/65/20 26/66/20 27/67/20 29/68/20
f 26/69/21 22/70/21 23/71/21 27/72/21
f 25/73/22 24/74/22 28/75/22 29/76/22
f 24/77/23 22/78/23 26/79/23 28/80/23
f 27/81/24 23/82/24 25/83/24 29/84/24
o cuboid
v 0.23754248187015525 0.2129699165196154 -0.009375
v 0.23754248187015525 0.2129699165196154 -0.028124999999999997
v 0.006572598742333541 0.11729905842834291 -0.009375
v 0.006572598742333541 0.11729905842834291 -0.028124999999999997
v 0.23036716751330977 0.230292657754202 -0.009375
v 0.23036716751330977 0.230292657754202 -0.028124999999999997
v -0.0006027156145118895 0.13462179966292953 -0.009375
v -0.0006027156145118895 0.13462179966292953 -0.028124999999999997
vt 0.125 1
vt 0 1
vt 0 0.5
vt 0.125 0.5
vt 0.125 0.5
vt 0.125 1
vt 0 1
vt 0 0.5
vt 0 0.875
vt 0.125 0.875
vt 0.125 1
vt 0 1
vt 0.125 0.875
vt 0.125 1
vt 0 1
vt 0 0.875
vt 0.125 0.5
vt 0.125 1
vt 0 1
vt 0 0.5
vt 0.125 1
vt 0 1
vt 0 0.5
vt 0.125 0.5
vn 0.38268343236508984 -0.9238795325112866 0
vn -0.38268343236508984 0.9238795325112866 0
vn 0.9238795325112866 0.38268343236508984 0
vn -0.9238795325112866 -0.38268343236508984 0
vn 0 0 1
vn 0 0 -1
usemtl none
f 31/85/25 30/86/25 32/87/25 33/88/25
f 36/89/26 34/90/26 35/91/26 37/92/26
f 34/93/27 30/94/27 31/95/27 35/96/27
f 33/97/28 32/98/28 36/99/28 37/100/28
f 32/101/29 30/102/29 34/103/29 36/104/29
f 35/105/30 31/106/30 33/107/30 37/108/30
o cuboid
v 0.0625 0.15000000000000002 0.0625
v 0.0625 0.15000000000000002 0.012499999999999997
v 0.0625 0.0625 0.0625
v 0.0625 0.0625 0.012499999999999997
v -0.0625 0.15000000000000002 0.0625
v -0.0625 0.15000000000000002 0.012499999999999997
v -0.0625 0.0625 0.0625
v -0.0625 0.0625 0.012499999999999997
vt 0.25 1
vt 0 1
vt 0 0.75
vt 0.25 0.75
vt 0.25 0.75
vt 0.25 1
vt 0 1
vt 0 0.75
vt 0 0.75
vt 0.25 0.75
vt 0.25 1
vt 0 1
vt 0.25 0.75
vt 0.25 1
vt 0 1
vt 0 0.75
vt 0.25 0.75
vt 0.25 1
vt 0 1
vt 0 0.75
vt 0.25 1
vt 0 1
vt 0 0.75
vt 0.25 0.75
vn 1 0 0
vn -1 0 0
vn 0 1 0
vn 0 -1 0
vn 0 0 1
vn 0 0 -1
usemtl none
f 39/109/31 38/110/31 40/111/31 41/112/31
f 44/113/32 42/114/32 43/115/32 45/116/32
f 42/117/33 38/118/33 39/119/33 43/120/33
f 41/121/34 40/122/34 44/123/34 45/124/34
f 40/125/35 38/126/35 42/127/35 44/128/35
f 43/129/36 39/130/36 41/131/36 45/132/36
o cuboid
v 0.021875000000000012 0.115625 0.0625
v 0.040625000000000015 0.115625 0.0625
v 0.021875000000000012 0.059375000000000004 0.0625
v 0.040625000000000015 0.059375000000000004 0.0625
v 0.021874999999999985 0.115625 -0.0625
v 0.04062499999999999 0.115625 -0.0625
v 0.021874999999999985 0.059375000000000004 -0.0625
v 0.04062499999999999 0.059375000000000004 -0.0625
vt 0.25 1
vt 0 1
vt 0 0.75
vt 0.25 0.75
vt 0.25 0.75
vt 0.25 1
vt 0 1
vt 0 0.75
vt 0 0.75
vt 0.25 0.75
vt 0.25 1
vt 0 1
vt 0.25 0.75
vt 0.25 1
vt 0 1
vt 0 0.75
vt 0.25 0.75
vt 0.25 1
vt 0 1
vt 0 0.75
vt 0.25 1
vt 0 1
vt 0 0.75
vt 0.25 0.75
vn 2.220446049250313e-16 0 1
vn -2.220446049250313e-16 0 -1
vn 0 1 0
vn 0 -1 0
vn -1 0 2.220446049250313e-16
vn 1 0 -2.220446049250313e-16
usemtl none
f 47/133/37 46/134/37 48/135/37 49/136/37
f 52/137/38 50/138/38 51/139/38 53/140/38
f 50/141/39 46/142/39 47/143/39 51/144/39
f 49/145/40 48/146/40 52/147/40 53/148/40
f 48/149/41 46/150/41 50/151/41 52/152/41
f 51/153/42 47/154/42 49/155/42 53/156/42