# Made in Blockbench 4.12.4
mtllib artilleryCannon.mtl

o cube
v 0.031249999999999428 1.0847876073623883 0.6709550858899106
v 0.031249999999999868 0.4439720869120796 0.030139565439601945
v 0.03124999999999946 1.0405934335382292 0.7151492597140698
v 0.031249999999999896 0.39977791308792043 0.07433373926376118
v -0.03125000000000014 0.44397208691207957 0.030139565439601945
v -0.031250000000000576 1.0847876073623883 0.6709550858899106
v -0.031250000000000104 0.3997779130879204 0.07433373926376118
v -0.03125000000000054 1.0405934335382292 0.7151492597140698
vt 0 1
vt 0.0625 1
vt 0.0625 0.9375
vt 0 0.9375
vt 0 1
vt 0.90625 1
vt 0.90625 0.9375
vt 0 0.9375
vt 0 1
vt 0.0625 1
vt 0.0625 0.9375
vt 0 0.9375
vt 0 1
vt 0.90625 1
vt 0.90625 0.9375
vt 0 0.9375
vt 0 1
vt 0.0625 1
vt 0.0625 0.09375
vt 0 0.09375
vt 0 1
vt 0.0625 1
vt 0.0625 0.09375
vt 0 0.09375
vn 4.857225732735053e-16 -0.7071067811865476 -0.7071067811865475
vn 1 6.869154506741506e-16 -4.930380657631324e-32
vn -4.857225732735053e-16 0.7071067811865476 0.7071067811865475
vn -1 -6.869154506741506e-16 4.930380657631324e-32
vn -4.857225732735053e-16 0.7071067811865475 -0.7071067811865476
vn 4.857225732735053e-16 -0.7071067811865475 0.7071067811865476
usemtl none
f 4/4/1 7/3/1 5/2/1 2/1/1
f 3/8/2 4/7/2 2/6/2 1/5/2
f 8/12/3 3/11/3 1/10/3 6/9/3
f 7/16/4 8/15/4 6/14/4 5/13/4
f 6/20/5 1/19/5 2/18/5 5/17/5
f 7/24/6 4/23/6 3/22/6 8/21/6
o beveled_cuboid
v 0.1874999999999998 0.5593592167691147 0.018305826175840756
v 0.18749999999999997 0.29419417382415936 -0.24685921676911454
v -0.1875000000000002 0.5593592167691144 0.018305826175840756
v -0.18750000000000003 0.294194173824159 -0.24685921676911454
v 0.18749999999999992 0.38258252147247784 0.19508252147247765
v 0.18750000000000008 0.11741747852752246 -0.07008252147247765
v -0.18750000000000008 0.3825825214724775 0.19508252147247765
v -0.18749999999999992 0.11741747852752218 -0.07008252147247765
v -0.25000000000000017 0.42677669529663675 0.15088834764831843
v -0.2500000000000002 0.5151650429449551 0.06249999999999997
v -0.24999999999999997 0.16161165235168137 -0.11427669529663687
v -0.25 0.2499999999999998 -0.20266504294495535
v 0.2499999999999999 0.4267766952966371 0.15088834764831843
v 0.24999999999999983 0.5151650429449555 0.06249999999999997
v 0.25000000000000006 0.1616116523516817 -0.11427669529663687
v 0.25 0.2500000000000001 -0.20266504294495535
v 0.18750000000000008 0.11741747852752246 -0.15847086912079608
v 0.18750000000000003 0.2058058261758409 -0.24685921676911454
v -0.18749999999999992 0.11741747852752218 -0.15847086912079608
v -0.18749999999999997 0.20580582617584062 -0.24685921676911454
v 0.18749999999999986 0.4709708691207962 0.19508252147247765
v 0.1874999999999998 0.5593592167691147 0.10669417382415919
v -0.18750000000000014 0.470970869120796 0.19508252147247765
v -0.1875000000000002 0.5593592167691144 0.10669417382415919
vt 0.375 1
vt 0 1
vt 0 0.875
vt 0.375 0.875
vt 0.375 0.875
vt 0.375 1
vt 0 1
vt 0 0.875
vt 0.375 0.625
vt 0.375 1
vt 0 1
vt 0 0.625
vt 0 0.625
vt 0.375 0.625
vt 0.375 1
vt 0 1
vt 0.375 0.875
vt 0.375 1
vt 0 1
vt 0 0.875
vt 0.375 1
vt 0 1
vt 0 0.875
vt 0.375 0.875
vt 0.375 1
vt 0 1
vt 0 0.9116124999999999
vt 0.375 0.9116124999999999
vt 0.375 0.9116124999999999
vt 0.375 1
vt 0 1
vt 0 0.9116124999999999
vt 0.375 0.9116124999999999
vt 0.375 1
vt 0 1
vt 0 0.9116124999999999
vt 0.375 1
vt 0 1
vt 0 0.9116124999999999
vt 0.375 0.9116124999999999
vt 0 1
vt 0 0.9116125
vt 0.375 0.9116125
vt 0.375 1
vt 0 0.9116125
vt 0.375 0.9116125
vt 0.375 1
vt 0 1
vt 0 0.9116125
vt 0.375 0.9116125
vt 0.375 1
vt 0 1
vt 0 1
vt 0 0.9116125
vt 0.375 0.9116125
vt 0.375 1
vt 0 0.875
vt 0.08838750000000001 0.875
vt 0.08838750000000001 1
vt 0 1
vt 0 1
vt 0 0.875
vt 0.08838750000000001 0.875
vt 0.08838750000000001 1
vt 0 1
vt 0 0.875
vt 0.08838750000000001 0.875
vt 0.08838750000000001 1
vt 0 0.875
vt 0.08838750000000001 0.875
vt 0.08838750000000001 1
vt 0 1
vt 0.044193750000000004 0.92345625
vt 0.08838750000000001 1
vt 0 1
vt 0.044193750000000004 0.92345625
vt 0.08838750000000001 1
vt 0 1
vt 0.044193750000000004 0.92345625
vt 0.08838750000000001 1
vt 0 1
vt 0.044193750000000004 0.92345625
vt 0.08838750000000001 1
vt 0 1
vt 0.044193750000000004 1
vt 0 0.92345625
vt 0.08838750000000001 0.92345625
vt 0.044193750000000004 1
vt 0 0.92345625
vt 0.08838750000000001 0.92345625
vt 0.044193750000000004 1
vt 0 0.92345625
vt 0.08838750000000001 0.92345625
vt 0.044193750000000004 1
vt 0 0.92345625
vt 0.08838750000000001 0.92345625
vn 1 6.869154506741506e-16 -4.930380657631324e-32
vn -1 -6.869154506741506e-16 4.930380657631324e-32
vn -4.857225732735053e-16 0.7071067811865475 -0.7071067811865476
vn 4.857225732735053e-16 -0.7071067811865475 0.7071067811865476
vn -4.857225732735053e-16 0.7071067811865476 0.7071067811865475
vn 4.857225732735053e-16 -0.7071067811865476 -0.7071067811865475
vn 0.7071067811865472 0.5000000000000004 -0.5000000000000001
vn -0.7071067811865479 0.4999999999999995 -0.5000000000000001
vn -6.869154506741506e-16 1 -1.1102230246251565e-16
vn 0 -1.1102230246251565e-16 -1
vn 0.7071067811865479 -0.4999999999999995 0.5000000000000001
vn -0.7071067811865472 -0.5000000000000004 0.5000000000000001
vn 0 1.1102230246251565e-16 1
vn 6.869154506741506e-16 -1 1.1102230246251565e-16
vn 0.7071067811865479 -0.4999999999999996 -0.5
vn 0.7071067811865472 0.5000000000000006 0.5
vn -0.7071067811865472 -0.5000000000000006 -0.5
vn -0.7071067811865479 0.4999999999999996 0.5
vn 0.5773502691896258 4.440892098500626e-16 0.816496580927726
vn -0.5773502691896258 -3.3306690738754696e-16 0.816496580927726
vn 0.5773502691896265 -0.8164965809277257 5.551115123125783e-17
vn -0.5773502691896252 -0.8164965809277265 5.551115123125783e-17
vn 0.5773502691896252 0.8164965809277265 -5.551115123125783e-17
vn -0.5773502691896265 0.8164965809277257 -5.551115123125783e-17
vn 0.5773502691896258 3.3306690738754696e-16 -0.816496580927726
vn -0.5773502691896258 -4.440892098500626e-16 -0.816496580927726
usemtl none
f 24/25/7 22/26/7 21/27/7 23/28/7
f 17/29/8 18/30/8 20/31/8 19/32/8
f 9/33/9 10/34/9 12/35/9 11/36/9
f 16/37/10 14/38/10 13/39/10 15/40/10
f 29/41/11 30/42/11 32/43/11 31/44/11
f 28/45/12 26/46/12 25/47/12 27/48/12
f 10/49/13 9/50/13 22/51/13 24/52/13
f 18/53/14 11/54/14 12/55/14 20/56/14
f 30/57/15 9/58/15 11/59/15 32/60/15
f 12/61/16 10/62/16 26/63/16 28/64/16
f 21/65/17 13/66/17 14/67/17 23/68/17
f 16/69/18 15/70/18 17/71/18 19/72/18
f 15/73/19 13/74/19 29/75/19 31/76/19
f 25/77/20 14/78/20 16/79/20 27/80/20
f 23/81/21 25/82/21 26/83/21 24/84/21
f 30/85/22 29/86/22 21/87/22 22/88/22
f 28/89/23 27/90/23 19/91/23 20/92/23
f 17/93/24 31/94/24 32/95/24 18/96/24
f 13/97/25 21/98/25 29/99/25
f 15/100/26 31/101/26 17/102/26
f 14/103/27 25/104/27 23/105/27
f 16/106/28 19/107/28 27/108/28
f 9/109/29 30/110/29 22/111/29
f 11/112/30 18/113/30 32/114/30
f 10/115/31 24/116/31 26/117/31
f 12/118/32 28/119/32 20/120/32
o beveled_cuboid
v 0.035156249999999396 1.1199635864009951 0.6844939350714825
v 0.03515624999999949 0.9873810649285175 0.5519114135990049
v -0.035156250000000604 1.1199635864009951 0.6844939350714825
v -0.03515625000000051 0.9873810649285174 0.5519114135990049
v 0.035156249999999445 1.0536723256647562 0.7507851958077213
v 0.03515624999999954 0.9210898041922786 0.6182026743352437
v -0.035156250000000555 1.0536723256647562 0.7507851958077213
v -0.03515625000000046 0.9210898041922786 0.6182026743352437
v -0.04687500000000056 1.0619587332567861 0.7424987882156915
v -0.0468750000000006 1.1116771788089652 0.6927803426635124
v -0.046875000000000465 0.9293762117843084 0.6099162667432139
v -0.0468750000000005 0.9790946573364876 0.5601978211910348
v 0.04687499999999944 1.0619587332567861 0.7424987882156915
v 0.0468749999999994 1.1116771788089652 0.6927803426635124
v 0.046874999999999535 0.9293762117843085 0.6099162667432139
v 0.0468749999999995 0.9790946573364876 0.5601978211910348
v 0.03515624999999955 0.9072791248722288 0.5878191798311343
v 0.035156249999999514 0.956997570424408 0.5381007342789551
v -0.03515625000000045 0.9072791248722288 0.5878191798311343
v -0.035156250000000486 0.9569975704244079 0.5381007342789551
v 0.035156249999999424 1.0840558201688657 0.764595875127771
v 0.03515624999999939 1.133774265721045 0.714877429575592
v -0.035156250000000576 1.0840558201688657 0.764595875127771
v -0.03515625000000061 1.1337742657210448 0.714877429575592
vt 0.375 1
vt 0 1
vt 0 0.625
vt 0.375 0.625
vt 0.375 0.625
vt 0.375 1
vt 0 1
vt 0 0.625
vt 0.375 0.625
vt 0.375 1
vt 0 1
vt 0 0.625
vt 0 0.625
vt 0.375 0.625
vt 0.375 1
vt 0 1
vt 0.375 0.625
vt 0.375 1
vt 0 1
vt 0 0.625
vt 0.375 1
vt 0 1
vt 0 0.625
vt 0.375 0.625
vt 0.375 1
vt 0 1
vt 0 0.9116125
vt 0.375 0.9116125
vt 0.375 0.9116125
vt 0.375 1
vt 0 1
vt 0 0.9116125
vt 0.375 0.9116125
vt 0.375 1
vt 0 1
vt 0 0.9116125
vt 0.375 1
vt 0 1
vt 0 0.9116125
vt 0.375 0.9116125
vt 0 1
vt 0 0.9116125
vt 0.375 0.9116125
vt 0.375 1
vt 0 0.9116125
vt 0.375 0.9116125
vt 0.375 1
vt 0 1
vt 0 0.9116125
vt 0.375 0.9116125
vt 0.375 1
vt 0 1
vt 0 1
vt 0 0.9116125
vt 0.375 0.9116125
vt 0.375 1
vt 0 0.625
vt 0.08838750000000001 0.625
vt 0.08838750000000001 1
vt 0 1
vt 0 1
vt 0 0.625
vt 0.08838750000000001 0.625
vt 0.08838750000000001 1
vt 0 1
vt 0 0.625
vt 0.08838750000000001 0.625
vt 0.08838750000000001 1
vt 0 0.625
vt 0.08838750000000001 0.625
vt 0.08838750000000001 1
vt 0 1
vt 0.044193750000000004 0.92345625
vt 0.08838750000000001 1
vt 0 1
vt 0.044193750000000004 0.92345625
vt 0.08838750000000001 1
vt 0 1
vt 0.044193750000000004 0.92345625
vt 0.08838750000000001 1
vt 0 1
vt 0.044193750000000004 0.92345625
vt 0.08838750000000001 1
vt 0 1
vt 0.044193750000000004 1
vt 0 0.92345
vt 0.08838750000000001 0.92345
vt 0.044193750000000004 1
vt 0 0.92345
vt 0.08838750000000001 0.92345
vt 0.044193750000000004 1
vt 0 0.92345
vt 0.08838750000000001 0.92345
vt 0.044193750000000004 1
vt 0 0.92345
vt 0.08838750000000001 0.92345
vn 1 6.869154506741506e-16 -4.930380657631324e-32
vn -1 -6.869154506741506e-16 4.930380657631324e-32
vn -4.857225732735053e-16 0.7071067811865475 -0.7071067811865476
vn 4.857225732735053e-16 -0.7071067811865475 0.7071067811865476
vn -4.857225732735053e-16 0.7071067811865476 0.7071067811865475
vn 4.857225732735053e-16 -0.7071067811865476 -0.7071067811865475
vn 0.7071067811865472 0.5000000000000004 -0.5000000000000001
vn -0.7071067811865479 0.4999999999999995 -0.5000000000000001
vn -6.253447991448642e-16 0.9103664774626049 -0.4138029443011841
vn -2.842476359749382e-16 0.4138029443011838 -0.9103664774626048
vn 0.7071067811865479 -0.4999999999999995 0.5000000000000001
vn -0.7071067811865472 -0.5000000000000004 0.5000000000000001
vn 2.842476359749382e-16 -0.4138029443011838 0.9103664774626048
vn 6.253447991448642e-16 -0.9103664774626049 0.4138029443011841
vn 0.9363291775690447 -0.24828176658070977 -0.24828176658071038
vn 0.9363291775690444 0.2482817665807111 0.24828176658071044
vn -0.9363291775690444 -0.2482817665807111 -0.24828176658071044
vn -0.9363291775690447 0.24828176658070977 0.24828176658071038
vn 0.683486126173409 -0.302061046665088 0.6645343026631947
vn -0.6834861261734085 -0.3020610466650889 0.6645343026631947
vn 0.6834861261734092 -0.6645343026631942 0.30206104666508854
vn -0.6834861261734083 -0.6645343026631951 0.30206104666508854
vn 0.6834861261734083 0.6645343026631951 -0.30206104666508854
vn -0.6834861261734092 0.6645343026631942 -0.30206104666508854
vn 0.6834861261734085 0.3020610466650889 -0.6645343026631947
vn -0.683486126173409 0.302061046665088 -0.6645343026631947
usemtl none
f 48/121/33 46/122/33 45/123/33 47/124/33
f 41/125/34 42/126/34 44/127/34 43/128/34
f 33/129/35 34/130/35 36/131/35 35/132/35
f 40/133/36 38/134/36 37/135/36 39/136/36
f 53/137/37 54/138/37 56/139/37 55/140/37
f 52/141/38 50/142/38 49/143/38 51/144/38
f 34/145/39 33/146/39 46/147/39 48/148/39
f 42/149/40 35/150/40 36/151/40 44/152/40
f 54/153/41 33/154/41 35/155/41 56/156/41
f 36/157/42 34/158/42 50/159/42 52/160/42
f 45/161/43 37/162/43 38/163/43 47/164/43
f 40/165/44 39/166/44 41/167/44 43/168/44
f 39/169/45 37/170/45 53/171/45 55/172/45
f 49/173/46 38/174/46 40/175/46 51/176/46
f 47/177/47 49/178/47 50/179/47 48/180/47
f 54/181/48 53/182/48 45/183/48 46/184/48
f 52/185/49 51/186/49 43/187/49 44/188/49
f 41/189/50 55/190/50 56/191/50 42/192/50
f 37/193/51 45/194/51 53/195/51
f 39/196/52 55/197/52 41/198/52
f 38/199/53 49/200/53 47/201/53
f 40/202/54 43/203/54 51/204/54
f 33/205/55 54/206/55 46/207/55
f 35/208/56 42/209/56 56/210/56
f 34/211/57 48/212/57 50/213/57
f 36/214/58 52/215/58 44/216/58
o cube
v 0.06249999999999971 0.6703046083845573 0.21227791308792038
v 0.062499999999999785 0.5598191738241592 0.10179247852752232
v 0.06249999999999977 0.5819162607362389 0.3006662607362388
v 0.06249999999999985 0.4714308261758408 0.19018082617584078
v -0.06250000000000021 0.5598191738241591 0.10179247852752232
v -0.06250000000000028 0.6703046083845572 0.21227791308792038
v -0.06250000000000015 0.47143082617584076 0.19018082617584078
v -0.06250000000000022 0.5819162607362388 0.3006662607362388
vt 0 1
vt 0.125 1
vt 0.125 0.875
vt 0 0.875
vt 0 1
vt 0.15625 1
vt 0.15625 0.875
vt 0 0.875
vt 0 1
vt 0.125 1
vt 0.125 0.875
vt 0 0.875
vt 0 1
vt 0.15625 1
vt 0.15625 0.875
vt 0 0.875
vt 0 1
vt 0.125 1
vt 0.125 0.84375
vt 0 0.84375
vt 0 1
vt 0.125 1
vt 0.125 0.84375
vt 0 0.84375
vn 4.857225732735053e-16 -0.7071067811865476 -0.7071067811865475
vn 1 6.869154506741506e-16 -4.930380657631324e-32
vn -4.857225732735053e-16 0.7071067811865476 0.7071067811865475
vn -1 -6.869154506741506e-16 4.930380657631324e-32
vn -4.857225732735053e-16 0.7071067811865475 -0.7071067811865476
vn 4.857225732735053e-16 -0.7071067811865475 0.7071067811865476
usemtl none
f 60/220/59 63/219/59 61/218/59 58/217/59
f 59/224/60 60/223/60 58/222/60 57/221/60
f 64/228/61 59/227/61 57/226/61 62/225/61
f 63/232/62 64/231/62 62/230/62 61/229/62
f 62/236/63 57/235/63 58/234/63 61/233/63
f 63/240/64 60/239/64 59/238/64 64/237/64