# Made in Blockbench 4.12.5
mtllib battleship_cannon.mtl

o cuboid
v 0.09375 0.33750000000000024 -0.33749999999999997
v 0.09375 0.33750000000000024 -0.5249999999999999
v 0.09375 0.30000000000000027 -0.33749999999999997
v 0.09375 0.30000000000000027 -0.5249999999999999
v 0 0.33750000000000024 -0.33749999999999997
v 0 0.33750000000000024 -0.5249999999999999
v 0.046875 0.33750000000000024 -0.33749999999999997
v 0.046875 0.33750000000000024 -0.5249999999999999
v 0 0.30000000000000027 -0.5249999999999999
v 0.046875 0.30000000000000027 -0.5249999999999999
v 0 0.30000000000000027 -0.33749999999999997
v 0.046875 0.30000000000000027 -0.33749999999999997
v 0.09375 0.33750000000000024 -0.47812499999999997
v 0.09375 0.30000000000000027 -0.47812499999999997
v 0.09375 0.33750000000000024 -0.43124999999999997
v 0.09375 0.30000000000000027 -0.43124999999999997
v 0.09375 0.33750000000000024 -0.38437499999999997
v 0.09375 0.30000000000000027 -0.38437499999999997
v 0.046875 0.30000000000000027 -0.47812499999999997
v 0.046875 0.30000000000000027 -0.43124999999999997
v 0.046875 0.30000000000000027 -0.38437499999999997
v 0 0.30000000000000027 -0.47812499999999997
v 0 0.30000000000000027 -0.43124999999999997
v 0 0.30000000000000027 -0.38437499999999997
v 0 0.36250000000000027 -0.47812499999999997
v 0 0.36250000000000027 -0.43124999999999997
v 0 0.36250000000000027 -0.38437499999999997
v 0.046875 0.36250000000000027 -0.47812499999999997
v 0.046875 0.36250000000000027 -0.43124999999999997
v 0.046875 0.36250000000000027 -0.38437499999999997
v -0.09375 0.33750000000000024 -0.33749999999999997
v -0.09375 0.33750000000000024 -0.5249999999999999
v -0.09375 0.30000000000000027 -0.33749999999999997
v -0.09375 0.30000000000000027 -0.5249999999999999
v -0.046875 0.33750000000000024 -0.33749999999999997
v -0.046875 0.33750000000000024 -0.5249999999999999
v -0.046875 0.30000000000000027 -0.5249999999999999
v -0.046875 0.30000000000000027 -0.33749999999999997
v -0.09375 0.33750000000000024 -0.47812499999999997
v -0.09375 0.30000000000000027 -0.47812499999999997
v -0.09375 0.33750000000000024 -0.43124999999999997
v -0.09375 0.30000000000000027 -0.43124999999999997
v -0.09375 0.33750000000000024 -0.38437499999999997
v -0.09375 0.30000000000000027 -0.38437499999999997
v -0.046875 0.30000000000000027 -0.47812499999999997
v -0.046875 0.30000000000000027 -0.43124999999999997
v -0.046875 0.30000000000000027 -0.38437499999999997
v -0.046875 0.36250000000000027 -0.47812499999999997
v -0.046875 0.36250000000000027 -0.43124999999999997
v -0.046875 0.36250000000000027 -0.38437499999999997
v -0.04374999999999999 0.3479480066746661 -0.4943960864858894
v -0.04374999999999999 0.4436188647659385 -0.7253659696137111
v -0.04374999999999999 0.3248510183618839 -0.5039631722950166
v -0.04374999999999999 0.42052187645315636 -0.7349330554228384
v -0.01875000000000001 0.3479480066746661 -0.4943960864858894
v -0.01875000000000001 0.4436188647659385 -0.7253659696137111
v -0.01875000000000001 0.3248510183618839 -0.5039631722950166
v -0.01875000000000001 0.42052187645315636 -0.7349330554228384
v 0.04374999999999999 0.3479480066746661 -0.4943960864858894
v 0.04374999999999999 0.4436188647659385 -0.7253659696137111
v 0.04374999999999999 0.3248510183618839 -0.5039631722950166
v 0.04374999999999999 0.42052187645315636 -0.7349330554228384
v 0.01875000000000001 0.3479480066746661 -0.4943960864858894
v 0.01875000000000001 0.4436188647659385 -0.7253659696137111
v 0.01875000000000001 0.3248510183618839 -0.5039631722950166
v 0.01875000000000001 0.42052187645315636 -0.7349330554228384
vt 0 0.75
vt 0.0625 0.75
vt 0.0625 1
vt 0 1
vt 0.25 0.75
vt 0.25 0.8125
vt 0.1875 0.8125
vt 0.1875 0.75
vt 0.1875 1
vt 0.1875 0.9375
vt 0.25 0.9375
vt 0.25 1
vt 0.25 1
vt 0.1875 1
vt 0.1875 0.75
vt 0.25 0.75
vt 0 0.75
vt 0.0625 0.75
vt 0.0625 1
vt 0 1
vt 0.1875 0.75
vt 0.1875 0.8125
vt 0.125 0.8125
vt 0.125 0.75
vt 0.125 1
vt 0.0625 1
vt 0.0625 0.75
vt 0.125 0.75
vt 0.125 1
vt 0.125 0.9375
vt 0.1875 0.9375
vt 0.1875 1
vt 0.125 0.75
vt 0.1875 0.75
vt 0.1875 1
vt 0.125 1
vt 0.25 1
vt 0.1875 1
vt 0.1875 0.75
vt 0.25 0.75
vt 0.1875 1
vt 0.125 1
vt 0.125 0.75
vt 0.1875 0.75
vt 0.125 1
vt 0.0625 1
vt 0.0625 0.75
vt 0.125 0.75
vt 0.25 0.75
vt 0.25 0.8125
vt 0.1875 0.8125
vt 0.1875 0.75
vt 0.25 0.8125
vt 0.25 0.875
vt 0.1875 0.875
vt 0.1875 0.8125
vt 0.25 0.875
vt 0.25 0.9375
vt 0.1875 0.9375
vt 0.1875 0.875
vt 0.1875 0.75
vt 0.1875 0.8125
vt 0.125 0.8125
vt 0.125 0.75
vt 0.1875 0.8125
vt 0.1875 0.875
vt 0.125 0.875
vt 0.125 0.8125
vt 0.1875 0.875
vt 0.1875 0.9375
vt 0.125 0.9375
vt 0.125 0.875
vt 0.125 1
vt 0.125 0.9375
vt 0.1875 0.9375
vt 0.1875 1
vt 0.125 0.9375
vt 0.125 0.875
vt 0.1875 0.875
vt 0.1875 0.9375
vt 0.125 0.875
vt 0.125 0.8125
vt 0.1875 0.8125
vt 0.1875 0.875
vt 0.1875 1
vt 0.1875 0.9375
vt 0.25 0.9375
vt 0.25 1
vt 0.1875 0.9375
vt 0.1875 0.875
vt 0.25 0.875
vt 0.25 0.9375
vt 0.1875 0.875
vt 0.1875 0.8125
vt 0.25 0.8125
vt 0.25 0.875
vt 0 1
vt 0 1
vt 0 0.75
vt 0 1
vt 0 1
vt 0 1
vt 0.25 0.75
vt 0.1875 0.75
vt 0 1
vt 0 1
vt 0.1875 1
vt 0.25 1
vt 0.1875 0.75
vt 0.1875 1
vt 0.25 1
vt 0.25 0.75
vt 0.0625 1
vt 0.0625 0.75
vt 0 0.75
vt 0 1
vt 0 1
vt 0 1
vt 0.1875 0.75
vt 0.125 0.75
vt 0.0625 0.75
vt 0.0625 1
vt 0.125 1
vt 0.125 0.75
vt 0 1
vt 0 1
vt 0.125 1
vt 0.1875 1
vt 0.1875 1
vt 0.1875 0.75
vt 0.125 0.75
vt 0.125 1
vt 0.1875 0.75
vt 0.1875 1
vt 0.25 1
vt 0.25 0.75
vt 0.125 0.75
vt 0.125 1
vt 0.1875 1
vt 0.1875 0.75
vt 0.0625 0.75
vt 0.0625 1
vt 0.125 1
vt 0.125 0.75
vt 0.1875 0.8125
vt 0.25 0.8125
vt 0.25 0.75
vt 0.1875 0.75
vt 0.1875 0.875
vt 0.25 0.875
vt 0.25 0.8125
vt 0.1875 0.8125
vt 0.1875 0.9375
vt 0.25 0.9375
vt 0.25 0.875
vt 0.1875 0.875
vt 0.125 0.8125
vt 0.1875 0.8125
vt 0.1875 0.75
vt 0.125 0.75
vt 0.125 0.875
vt 0.1875 0.875
vt 0.1875 0.8125
vt 0.125 0.8125
vt 0.125 0.9375
vt 0.1875 0.9375
vt 0.1875 0.875
vt 0.125 0.875
vt 0.1875 0.9375
vt 0.125 0.9375
vt 0.125 1
vt 0.1875 1
vt 0.1875 0.875
vt 0.125 0.875
vt 0.125 0.9375
vt 0.1875 0.9375
vt 0.1875 0.8125
vt 0.125 0.8125
vt 0.125 0.875
vt 0.1875 0.875
vt 0.25 0.9375
vt 0.1875 0.9375
vt 0.1875 1
vt 0.25 1
vt 0.25 0.875
vt 0.1875 0.875
vt 0.1875 0.9375
vt 0.25 0.9375
vt 0.25 0.8125
vt 0.1875 0.8125
vt 0.1875 0.875
vt 0.25 0.875
vt 0.25 1
vt 0.25 0.75
vt 0 0.75
vt 0 1
vt 0 1
vt 0.25 1
vt 0.25 0.75
vt 0 0.75
vt 0 1
vt 0.25 1
vt 0.25 0.75
vt 0 0.75
vt 0 0.75
vt 0 1
vt 0.25 1
vt 0.25 0.75
vt 0 0.75
vt 0 1
vt 0.25 1
vt 0.25 0.75
vt 0.25 1
vt 0 1
vt 0 0.75
vt 0.25 0.75
vt 0 0.75
vt 0.25 0.75
vt 0.25 1
vt 0 1
vt 0.25 0.75
vt 0.25 1
vt 0 1
vt 0 0.75
vt 0.25 0.75
vt 0.25 1
vt 0 1
vt 0 0.75
vt 0.25 1
vt 0 1
vt 0 0.75
vt 0.25 0.75
vt 0.25 1
vt 0 1
vt 0 0.75
vt 0.25 0.75
vt 0 0.75
vt 0 1
vt 0.25 1
vt 0.25 0.75
vn 1 0 0
vn 0.47058823529411803 0.8823529411764706 0
vn 0 -1 0
vn 0 0 1
vn 0 0 -1
vn 0 0.8823529411764706 0.47058823529411803
vn 0 0 -1
vn 0 -1 0
vn 0 0 1
vn 1 0 0
vn 1 0 0
vn 1 0 0
vn 0 -1 0
vn 0 -1 0
vn 0 -1 0
vn 0 -1 0
vn 0 -1 0
vn 0 -1 0
vn 0 0.8823529411764706 -0.47058823529411803
vn 0 1 0
vn 0 1 0
vn 0.4257970363298799 0.7983694431185241 -0.4257970363298799
vn 0.47058823529411803 0.8823529411764706 0
vn 0.47058823529411803 0.8823529411764706 0
vn -1 0 0
vn -0.47058823529411803 0.8823529411764706 0
vn 0 -1 0
vn 0 0 1
vn 0 0 -1
vn 0 0.8823529411764706 0.47058823529411803
vn 0 0 -1
vn 0 -1 0
vn 0 0 1
vn -1 0 0
vn -1 0 0
vn -1 0 0
vn 0 -1 0
vn 0 -1 0
vn 0 -1 0
vn 0 -1 0
vn 0 -1 0
vn 0 -1 0
vn 0 0.8823529411764706 -0.47058823529411803
vn 0 1 0
vn 0 1 0
vn -0.4257970363298799 0.7983694431185241 -0.4257970363298799
vn -0.47058823529411803 0.8823529411764706 0
vn -0.47058823529411803 0.8823529411764706 0
vn 0 0.9238795325112868 0.38268343236508956
vn 0 -0.9238795325112868 -0.3826834323650898
vn 0 -0.3826834323650896 0.923879532511287
vn 0 0.3826834323650904 -0.9238795325112866
vn -1 0 0
vn 1 0 0
vn 0 0.9238795325112868 0.38268343236508956
vn 0 -0.9238795325112868 -0.3826834323650898
vn 0 -0.3826834323650896 0.923879532511287
vn 0 0.3826834323650904 -0.9238795325112866
vn 1 0 0
vn -1 0 0
usemtl none
f 3/1/1 18/2/1 17/3/1 1/4/1
f 1/5/2 17/6/2 30/7/2 7/8/2
f 12/9/3 21/10/3 18/11/3 3/12/3
f 1/13/4 7/14/4 12/15/4 3/16/4
f 4/17/5 10/18/5 8/19/5 2/20/5
f 7/21/6 30/22/6 27/23/6 5/24/6
f 6/25/7 8/26/7 10/27/7 9/28/7
f 11/29/8 24/30/8 21/31/8 12/32/8
f 11/33/9 12/34/9 7/35/9 5/36/9
f 2/37/10 13/38/10 14/39/10 4/40/10
f 13/41/11 15/42/11 16/43/11 14/44/11
f 15/45/12 17/46/12 18/47/12 16/48/12
f 4/49/13 14/50/13 19/51/13 10/52/13
f 14/53/14 16/54/14 20/55/14 19/56/14
f 16/57/15 18/58/15 21/59/15 20/60/15
f 10/61/16 19/62/16 22/63/16 9/64/16
f 19/65/17 20/66/17 23/67/17 22/68/17
f 20/69/18 21/70/18 24/71/18 23/72/18
f 6/73/19 25/74/19 28/75/19 8/76/19
f 25/77/20 26/78/20 29/79/20 28/80/20
f 26/81/21 27/82/21 30/83/21 29/84/21
f 8/85/22 28/86/22 13/87/22 2/88/22
f 28/89/23 29/90/23 15/91/23 13/92/23
f 29/93/24 30/94/24 17/95/24 15/96/24
f 43/97/25 44/98/25 33/99/25 31/100/25
f 50/101/26 43/102/26 31/103/26 35/104/26
f 44/105/27 47/106/27 38/107/27 33/108/27
f 38/109/28 35/110/28 31/111/28 33/112/28
f 36/113/29 37/114/29 34/115/29 32/116/29
f 27/117/30 50/118/30 35/119/30 5/120/30
f 37/121/31 36/122/31 6/123/31 9/124/31
f 47/125/32 24/126/32 11/127/32 38/128/32
f 35/129/33 38/130/33 11/131/33 5/132/33
f 40/133/34 39/134/34 32/135/34 34/136/34
f 42/137/35 41/138/35 39/139/35 40/140/35
f 44/141/36 43/142/36 41/143/36 42/144/36
f 45/145/37 40/146/37 34/147/37 37/148/37
f 46/149/38 42/150/38 40/151/38 45/152/38
f 47/153/39 44/154/39 42/155/39 46/156/39
f 22/157/40 45/158/40 37/159/40 9/160/40
f 23/161/41 46/162/41 45/163/41 22/164/41
f 24/165/42 47/166/42 46/167/42 23/168/42
f 48/169/43 25/170/43 6/171/43 36/172/43
f 49/173/44 26/174/44 25/175/44 48/176/44
f 50/177/45 27/178/45 26/179/45 49/180/45
f 39/181/46 48/182/46 36/183/46 32/184/46
f 41/185/47 49/186/47 48/187/47 39/188/47
f 43/189/48 50/190/48 49/191/48 41/192/48
f 52/193/49 51/194/49 55/195/49 56/196/49
f 57/197/50 53/198/50 54/199/50 58/200/50
f 55/201/51 51/202/51 53/203/51 57/204/51
f 54/205/52 52/206/52 56/207/52 58/208/52
f 53/209/53 51/210/53 52/211/53 54/212/53
f 56/213/54 55/214/54 57/215/54 58/216/54
f 63/217/55 59/218/55 60/219/55 64/220/55
f 62/221/56 61/222/56 65/223/56 66/224/56
f 61/225/57 59/226/57 63/227/57 65/228/57
f 64/229/58 60/230/58 62/231/58 66/232/58
f 60/233/59 59/234/59 61/235/59 62/236/59
f 65/237/60 63/238/60 64/239/60 66/240/60