# Made in Blockbench 4.12.4
mtllib bomberPlane.mtl

o cuboid
v 1.2058985558085436e-16 0.015625 0.46875
v 0.375 0.015625 -0.421875
v 0.3125 0.015625 -0.484375
v 0.12500000000000003 0.015625 -0.296875
v 1.151975003179321e-17 0.015625 -0.421875
v -0.375 0.015625 -0.421875
v -0.3125 0.015625 -0.484375
v -0.12499999999999997 0.015625 -0.296875
vt 0.609375 0.984375
vt 0.578125 0.984375
vt 0.578125 0.953125
vt 0.671875 0.984375
vt 0.640625 0.984375
vt 0.640625 0.953125
vt 0.734375 0.984375
vt 0.703125 0.984375
vt 0.703125 0.953125
vt 0.796875 0.984375
vt 0.765625 0.984375
vt 0.765625 0.953125
vt 0.859375 0.984375
vt 0.828125 0.984375
vt 0.828125 0.953125
vt 0.921875 0.984375
vt 0.890625 0.984375
vt 0.890625 0.953125
vn 0 1 0
vn 0 1 0
vn 0 1 0
vn 0 1 0
vn 0 1 0
vn 0 1 0
usemtl none
f 2/1/1 3/2/1 4/3/1
f 4/4/2 5/5/2 1/6/2
f 2/7/3 4/8/3 1/9/3
f 7/10/4 6/11/4 8/12/4
f 5/13/5 8/14/5 1/15/5
f 8/16/6 6/17/6 1/18/6
o cuboid
v 0.06250000000000012 0.015625 0.359375
v 0.1250000000000001 0.015625 0.234375
v 1.214306433183765e-16 0.109375 0.34375
vt 0.984375 0.984375
vt 0.953125 0.984375
vt 0.953125 0.953125
vn 0.7427813527082076 0.5570860145311557 0.37139067635410367
usemtl none
f 11/19/7 9/20/7 10/21/7
o cuboid
v 0.1250000000000001 0.015625 0.234375
v 0.14062500000000003 0.015625 -0.25
v 1.1102230246251565e-16 0.109375 0.34375
vt 0.984375 0.984375
vt 0.953125 0.984375
vt 0.953125 0.953125
vn 0.6108613211847213 0.7914923570189131 0.01970520390918448
usemtl none
f 14/22/8 12/23/8 13/24/8
o cuboid
v 0.06250000000000004 0.109375 -0.1875
v 0.14062500000000003 0.015625 -0.25
v 1.1102230246251565e-16 0.109375 0.34375
vt 0.984375 0.984375
vt 0.953125 0.984375
vt 0.953125 0.953125
vn -0.7946229442927814 -0.5998624187308251 -0.09348505226973888
usemtl none
f 17/25/9 15/26/9 16/27/9
o cuboid
v 4.163336342344337e-17 0.015625 -0.25
v 0.06250000000000006 0.109375 -0.1875
v 5.551115123125783e-17 0.140625 -0.15625
vt 0.984375 0.984375
vt 0.953125 0.984375
vt 0.953125 0.953125
vn 0.09950371902099901 -0.5970223141259935 0.7960297521679913
usemtl none
f 20/28/10 18/29/10 19/30/10
o cuboid
v 4.163336342344337e-17 0.015625 -0.25
v 0.06250000000000006 0.109375 -0.1875
v 0.14062500000000006 0.015625 -0.25
vt 0.984375 0.984375
vt 0.953125 0.984375
vt 0.953125 0.953125
vn -1.0189677296904536e-16 0.5547001962252293 -0.8320502943378438
usemtl none
f 23/31/11 21/32/11 22/33/11
o cuboid
v 0.01562500000000004 0.015625 -0.25
v 0.06250000000000003 0.21875 -0.375
v 0.04687500000000004 0.078125 -0.203125
vt 0.984375 0.984375
vt 0.953125 0.984375
vt 0.953125 0.953125
vn 0.9273324167322545 -0.3265254988493854 -0.18285427935565593
usemtl none
f 26/34/12 24/35/12 25/36/12
o cuboid
v 0.03125000000000004 0.015625 -0.25
v 0.06250000000000003 0.21875 -0.375
v 0.06250000000000004 0.078125 -0.203125
vt 0.984375 0.984375
vt 0.953125 0.984375
vt 0.953125 0.953125
vn 0.9283623902581102 -0.2876615857137806 -0.23535947922036607
usemtl none
f 29/37/13 27/38/13 28/39/13
o cuboid
v 0.01562500000000004 0.015625 -0.25
v 0.06250000000000003 0.21875 -0.375
v 0.03125000000000004 0.015625 -0.25
vt 0.984375 0.984375
vt 0.953125 0.984375
vt 0.953125 0.953125
vn -1.0429806315194425e-16 -0.5240974256643347 -0.851658316704544
usemtl none
f 32/40/14 30/41/14 31/42/14
o cuboid
v 0.04687500000000004 0.078125 -0.203125
v 0.06250000000000003 0.21875 -0.375
v 0.06250000000000004 0.078125 -0.203125
vt 0.984375 0.984375
vt 0.953125 0.984375
vt 0.953125 0.953125
vn -7.754926329376997e-17 -0.773957299203321 -0.6332377902572627
usemtl none
f 35/43/15 33/44/15 34/45/15
o cuboid
v -0.031249999999999875 0.015625 0.421875
v 1.2872711151766558e-16 0.015625 0.46875
v 0.031250000000000125 0.015625 0.421875
v 1.2107306902299464e-16 0.0625 0.40625
vt 0.046875 0.984375
vt 0.015625 0.984375
vt 0.015625 0.953125
vt 0.109375 0.984375
vt 0.078125 0.984375
vt 0.078125 0.953125
vt 0.171875 0.984375
vt 0.140625 0.984375
vt 0.140625 0.953125
vn 0 -1 0
vn 0.6689647316224497 0.5946353169977331 0.44597648774829973
vn -0.6689647316224497 0.5946353169977331 0.44597648774829984
usemtl none
f 36/46/16 38/47/16 37/48/16
f 39/49/17 37/50/17 38/51/17
f 39/52/18 36/53/18 37/54/18
o cuboid
v 0.03125000000000012 0.015625 0.421875
v 0.06250000000000011 0.015625 0.359375
v 1.1449174941446927e-16 0.0625 0.40625
vt 0.234375 0.984375
vt 0.203125 0.984375
vt 0.203125 0.953125
vn 0.7171371656006362 0.5976143046671969 0.358568582800318
usemtl none
f 42/55/19 40/56/19 41/57/19
o cuboid
v 1.214306433183765e-16 0.0625 0.40625
v 0.06250000000000011 0.015625 0.359375
v 1.1449174941446927e-16 0.109375 0.34375
vt 0.296875 0.984375
vt 0.265625 0.984375
vt 0.265625 0.953125
vn 0.7241379310344828 0.5517241379310345 0.41379310344827575
usemtl none
f 45/58/20 43/59/20 44/60/20
o cuboid
v 1.3877787807814457e-16 0.109375 0.34375
v 0.06250000000000007 0.109375 -0.1875
v 5.551115123125783e-17 0.140625 -0.15625
vt 0.421875 0.984375
vt 0.390625 0.984375
vt 0.390625 0.953125
vn 0.46844222368657396 0.8817735975276686 0.05511084984547923
usemtl none
f 48/61/21 46/62/21 47/63/21
o cuboid
v 0.06250000000000012 0.015625 0.359375
v 0.1250000000000001 0.015625 0.234375
v 1.214306433183765e-16 0.109375 0.34375
vt 0.109375 0.921875
vt 0.078125 0.921875
vt 0.078125 0.890625
vn 0.7427813527082076 0.5570860145311557 0.37139067635410367
usemtl none
f 51/64/22 49/65/22 50/66/22
o cuboid
v -0.031249999999999882 0.015625 0.421875
v -0.06249999999999989 0.015625 0.359375
v 1.1796119636642288e-16 0.0625 0.40625
vt 0.359375 0.984375
vt 0.328125 0.984375
vt 0.328125 0.953125
vn -0.7171371656006361 0.5976143046671968 0.35856858280031817
usemtl none
f 52/67/23 54/68/23 53/69/23
o cuboid
v 1.249000902703301e-16 0.0625 0.40625
v -0.06249999999999988 0.015625 0.359375
v 1.1796119636642288e-16 0.109375 0.34375
vt 0.484375 0.984375
vt 0.453125 0.984375
vt 0.453125 0.953125
vn -0.7241379310344828 0.5517241379310345 0.41379310344827597
usemtl none
f 55/70/24 57/71/24 56/72/24
o cuboid
v -0.06249999999999989 0.015625 0.359375
v -0.1249999999999999 0.015625 0.234375
v 1.1102230246251565e-16 0.109375 0.34375
vt 0.046875 0.921875
vt 0.015625 0.921875
vt 0.015625 0.890625
vn -0.7427813527082076 0.5570860145311557 0.3713906763541039
usemtl none
f 58/73/25 60/74/25 59/75/25
o cuboid
v -0.06249999999999989 0.015625 0.359375
v -0.1249999999999999 0.015625 0.234375
v 1.1102230246251565e-16 0.109375 0.34375
vt 0.171875 0.921875
vt 0.140625 0.921875
vt 0.140625 0.890625
vn -0.7427813527082076 0.5570860145311557 0.3713906763541039
usemtl none
f 61/76/26 63/77/26 62/78/26
o cuboid
v -0.015624999999999972 0.015625 -0.25
v -0.06249999999999998 0.21875 -0.375
v -0.031249999999999972 0.015625 -0.25
vt 0.953125 0.984375
vt 0.984375 0.984375
vt 0.953125 0.953125
vn -1.0429806315194425e-16 -0.5240974256643347 -0.851658316704544
usemtl none
f 64/79/27 66/80/27 65/81/27
o cuboid
v -0.1249999999999999 0.015625 0.234375
v -0.14062499999999997 0.015625 -0.25
v 1.1102230246251565e-16 0.109375 0.34375
vt 0.953125 0.984375
vt 0.984375 0.984375
vt 0.953125 0.953125
vn -0.6108613211847213 0.7914923570189131 0.01970520390918463
usemtl none
f 67/82/28 69/83/28 68/84/28
o cuboid
v 1.1102230246251565e-16 0.109375 0.34375
v -0.06249999999999996 0.109375 -0.1875
v 2.7755575615628914e-17 0.140625 -0.15625
vt 0.390625 0.984375
vt 0.421875 0.984375
vt 0.390625 0.953125
vn -0.46844222368657396 0.8817735975276686 0.05511084984547934
usemtl none
f 70/85/29 72/86/29 71/87/29
o cuboid
v -0.06249999999999996 0.109375 -0.1875
v -0.14062499999999997 0.015625 -0.25
v 1.1102230246251565e-16 0.109375 0.34375
vt 0.953125 0.984375
vt 0.984375 0.984375
vt 0.953125 0.953125
vn 0.7946229442927814 -0.5998624187308251 -0.09348505226973908
usemtl none
f 73/88/30 75/89/30 74/90/30
o cuboid
v 4.163336342344337e-17 0.015625 -0.25
v -0.06249999999999995 0.109375 -0.1875
v 5.551115123125783e-17 0.140625 -0.15625
vt 0.953125 0.984375
vt 0.984375 0.984375
vt 0.953125 0.953125
vn -0.09950371902099882 -0.5970223141259935 0.7960297521679913
usemtl none
f 76/91/31 78/92/31 77/93/31
o cuboid
v 4.163336342344337e-17 0.015625 -0.25
v -0.06249999999999995 0.109375 -0.1875
v -0.14062499999999994 0.015625 -0.25
vt 0.953125 0.984375
vt 0.984375 0.984375
vt 0.953125 0.953125
vn -1.0189677296904536e-16 0.5547001962252293 -0.8320502943378438
usemtl none
f 79/94/32 81/95/32 80/96/32
o cuboid
v -0.015624999999999958 0.015625 -0.25
v -0.06249999999999998 0.21875 -0.375
v -0.04687499999999996 0.078125 -0.203125
vt 0.953125 0.984375
vt 0.984375 0.984375
vt 0.953125 0.953125
vn -0.9273324167322545 -0.3265254988493854 -0.1828542793556557
usemtl none
f 82/97/33 84/98/33 83/99/33
o cuboid
v -0.03124999999999996 0.015625 -0.25
v -0.06249999999999998 0.21875 -0.375
v -0.06249999999999996 0.078125 -0.203125
vt 0.953125 0.984375
vt 0.984375 0.984375
vt 0.953125 0.953125
vn -0.9283623902581102 -0.2876615857137806 -0.23535947922036585
usemtl none
f 85/100/34 87/101/34 86/102/34
o cuboid
v -0.03124999999999996 0.015625 -0.25
v -0.06249999999999998 0.21875 -0.375
v -0.06249999999999996 0.078125 -0.203125
vt 0.953125 0.984375
vt 0.984375 0.984375
vt 0.953125 0.953125
vn -0.9283623902581102 -0.2876615857137806 -0.23535947922036585
usemtl none
f 88/103/35 90/104/35 89/105/35