# Made in Blockbench 4.12.5
mtllib mediumTankCannon.mtl

o pyramid
v 0.3125 0.35 -0.06875
v 0.3125 0.125 0.28125
v 0.3125 0.125 -0.41874999999999996
v 0.3125 0.125 0.28125
v 0.3125 0.125 -0.41874999999999996
vt 1 1
vt 0 1
vt 1 0
vt 0 0
vt 0 0.29288749999999997
vt 1 0.29288749999999997
vt 0.5 1
vt 0 0.29288749999999997
vt 1 0.29288749999999997
vt 0.5 1
vt 0 0.29288749999999997
vt 1 0.29288749999999997
vt 0.5 1
vt 0 0.29288749999999997
vt 1 0.29288749999999997
vt 0.5 1
vn 0 0 0
vn 1 0 0
vn 0 0 0
vn 0 0 0
vn -1 0 0
usemtl none
f 2/1/1 4/2/1 3/3/1 5/4/1
f 2/5/2 3/6/2 1/7/2
f 4/8/3 2/9/3 1/10/3
f 3/11/4 5/12/4 1/13/4
f 5/14/5 4/15/5 1/16/5
o plane
v 0.3125 0.12668195577846758 0.2801994856989077
v 0.3125 0.3483180442215324 -0.06769948569890767
v -0.3125 0.12668195577846758 0.2801994856989077
v -0.3125 0.3483180442215324 -0.06769948569890767
vt 1 0
vt 1 1
vt 0 1
vt 0 0
vn 0 0.8433914458128857 0.5372996083468239
usemtl none
f 6/17/6 7/18/6 9/19/6 8/20/6
o pyramid
v -0.3125 0.35 -0.06875
v -0.3125 0.125 0.28125
v -0.3125 0.125 -0.41874999999999996
v -0.3125 0.125 0.28125
v -0.3125 0.125 -0.41874999999999996
vt 1 1
vt 0 1
vt 1 0
vt 0 0
vt 0 0.29288749999999997
vt 1 0.29288749999999997
vt 0.5 1
vt 0 0.29288749999999997
vt 1 0.29288749999999997
vt 0.5 1
vt 0 0.29288749999999997
vt 1 0.29288749999999997
vt 0.5 1
vt 0 0.29288749999999997
vt 1 0.29288749999999997
vt 0.5 1
vn 0 0 0
vn 1 0 0
vn 0 0 0
vn 0 0 0
vn -1 0 0
usemtl none
f 11/21/7 13/22/7 12/23/7 14/24/7
f 11/25/8 12/26/8 10/27/8
f 13/28/9 11/29/9 10/30/9
f 12/31/10 14/32/10 10/33/10
f 14/34/11 13/35/11 10/36/11
o cube
v 0.3125 0.35 -0.06874999999999998
v 0.3125 0.35 -0.4375
v 0.3125 0.125 -0.06874999999999998
v 0.3125 0.125 -0.4375
v -0.3125 0.35 -0.4375
v -0.3125 0.35 -0.06874999999999998
v -0.3125 0.125 -0.4375
v -0.3125 0.125 -0.06874999999999998
vt 0 1
vt 0.625 1
vt 0.625 0.775
vt 0 0.775
vt 0 1
vt 0.36875 1
vt 0.36875 0.775
vt 0 0.775
vt 0 1
vt 0.625 1
vt 0.625 0.775
vt 0 0.775
vt 0 1
vt 0.36875 1
vt 0.36875 0.775
vt 0 0.775
vt 0 1
vt 0.625 1
vt 0.625 0.63125
vt 0 0.63125
vt 0 1
vt 0.625 1
vt 0.625 0.63125
vt 0 0.63125
vn 0 0 -1
vn 1 0 0
vn 0 0 1
vn -1 0 0
vn 0 1 0
vn 0 -1 0
usemtl none
f 18/40/12 21/39/12 19/38/12 16/37/12
f 17/44/13 18/43/13 16/42/13 15/41/13
f 22/48/14 17/47/14 15/46/14 20/45/14
f 21/52/15 22/51/15 20/50/15 19/49/15
f 20/56/16 15/55/16 16/54/16 19/53/16
f 21/60/17 18/59/17 17/58/17 22/57/17
o cube
v 0.03125 0.30625 0.50625
v 0.03125 0.30625 -0.024999999999999994
v 0.03125 0.24375000000000002 0.50625
v 0.03125 0.24375000000000002 -0.024999999999999994
v -0.03125 0.30625 -0.024999999999999994
v -0.03125 0.30625 0.50625
v -0.03125 0.24375000000000002 -0.024999999999999994
v -0.03125 0.24375000000000002 0.50625
vt 0 1
vt 0.0625 1
vt 0.0625 0.9375
vt 0 0.9375
vt 0 1
vt 0.53125 1
vt 0.53125 0.9375
vt 0 0.9375
vt 0 1
vt 0.0625 1
vt 0.0625 0.9375
vt 0 0.9375
vt 0 1
vt 0.53125 1
vt 0.53125 0.9375
vt 0 0.9375
vt 0 1
vt 0.0625 1
vt 0.0625 0.46875
vt 0 0.46875
vt 0 1
vt 0.0625 1
vt 0.0625 0.46875
vt 0 0.46875
vn 0 0 -1
vn 1 0 0
vn 0 0 1
vn -1 0 0
vn 0 1 0
vn 0 -1 0
usemtl none
f 26/64/18 29/63/18 27/62/18 24/61/18
f 25/68/19 26/67/19 24/66/19 23/65/19
f 30/72/20 25/71/20 23/70/20 28/69/20
f 29/76/21 30/75/21 28/74/21 27/73/21
f 28/80/22 23/79/22 24/78/22 27/77/22
f 29/84/23 26/83/23 25/82/23 30/81/23
o sphere
v -1.9081958235744878e-17 0.4551545573159036 -0.15910177918202603
v -1.9081958235744878e-17 0.732345442684098 -0.30339822081797413
v 0.07812499999999996 0.7091374804123346 -0.30264496093225596
v 0.13531646934131852 0.6550115359474245 -0.28276147892108827
v 0.15625 0.5844706123983119 -0.24907553773208221
v 0.13531646934131858 0.5164160932633273 -0.21061325810311426
v 0.07812499999999996 0.46908313198597806 -0.17768057679982632
v 0.0571914693413185 0.7011012950177097 -0.3180823294443571
v 0.09905853065868145 0.6410924545448912 -0.3094997855192115
v 0.11438293868263708 0.5683982416090622 -0.27995027475628453
v 0.09905853065868145 0.502497011860794 -0.23735156470123742
v 0.0571914693413185 0.46104694659135315 -0.1931179453119275
v 0.020933530658681455 0.6964616012168653 -0.3269950983103982
v 0.03625793868263709 0.6330562691502662 -0.3249371540313126
v 0.041867061317362946 0.5591188540073733 -0.29777581248836665
v 0.036257938682637096 0.4944608264661691 -0.2527889332133386
v 0.020933530658681455 0.45640725279050876 -0.20203071417796853
v -0.02093353065868144 0.6964616012168653 -0.3269950983103982
v -0.036257938682637034 0.6330562691502662 -0.3249371540313126
v -0.04186706131736287 0.5591188540073733 -0.2977758124883667
v -0.03625793868263704 0.4944608264661691 -0.2527889332133386
v -0.02093353065868144 0.45640725279050876 -0.20203071417796856
v -0.05719146934131853 0.7011012950177097 -0.31808232944435716
v -0.09905853065868146 0.6410924545448912 -0.3094997855192115
v -0.11438293868263709 0.568398241609062 -0.2799502747562846
v -0.09905853065868146 0.502497011860794 -0.23735156470123744
v -0.05719146934131853 0.46104694659135315 -0.1931179453119275
v -0.078125 0.7091374804123346 -0.30264496093225596
v -0.13531646934131852 0.6550115359474245 -0.28276147892108827
v -0.15625 0.5844706123983119 -0.24907553773208221
v -0.13531646934131852 0.5164160932633273 -0.21061325810311424
v -0.078125 0.46908313198597806 -0.17768057679982632
vt 0 0.7411749999999999
vt 0.133975 0.7411749999999999
vt 0.0669875 1
vt 0.0490375 1
vt 0 0.7411749999999999
vt 0.23205 0.7411749999999999
vt 0.18301250000000002 1
vt 0.017950000000000008 1
vt 0 0.7411749999999999
vt 0.26795 0.7411749999999999
vt 0.25 1
vt 0 1
vt 0.017950000000000008 0.7411749999999999
vt 0.25 0.7411749999999999
vt 0.26795 1
vt 0 1
vt 0.0490375 0.7411749999999999
vt 0.18301250000000002 0.7411749999999999
vt 0.23205 1
vt 0.133975 1
vt 0 1
vt 0.0669875 0.7411749999999999
vt 0 0.7411749999999999
vt 0.133975 0.7411749999999999
vt 0.0669875 1
vt 0.0490375 1
vt 0 0.7411749999999999
vt 0.23205 0.7411749999999999
vt 0.18301250000000002 1
vt 0.017950000000000008 1
vt 0 0.7411749999999999
vt 0.26795 0.7411749999999999
vt 0.25 1
vt 0 1
vt 0.017950000000000008 0.7411749999999999
vt 0.25 0.7411749999999999
vt 0.26795 1
vt 0 1
vt 0.0490375 0.7411749999999999
vt 0.18301250000000002 0.7411749999999999
vt 0.23205 1
vt 0.133975 1
vt 0 1
vt 0.0669875 0.7411749999999999
vt 0 0.7411749999999999
vt 0.133975 0.7411749999999999
vt 0.0669875 1
vt 0.0490375 1
vt 0 0.7411749999999999
vt 0.23205 0.7411749999999999
vt 0.18301250000000002 1
vt 0.017950000000000008 1
vt 0 0.7411749999999999
vt 0.26795 0.7411749999999999
vt 0.25 1
vt 0 1
vt 0.017950000000000008 0.7411749999999999
vt 0.25 0.7411749999999999
vt 0.26795 1
vt 0 1
vt 0.0490375 0.7411749999999999
vt 0.18301250000000002 0.7411749999999999
vt 0.23205 1
vt 0.133975 1
vt 0 1
vt 0.0669875 0.7411749999999999
vt 0 0.7411749999999999
vt 0.133975 0.7411749999999999
vt 0.0669875 1
vt 0.0490375 1
vt 0 0.7411749999999999
vt 0.23205 0.7411749999999999
vt 0.18301250000000002 1
vt 0.017950000000000008 1
vt 0 0.7411749999999999
vt 0.26795 0.7411749999999999
vt 0.25 1
vt 0 1
vt 0.017950000000000008 0.7411749999999999
vt 0.25 0.7411749999999999
vt 0.26795 1
vt 0 1
vt 0.0490375 0.7411749999999999
vt 0.18301250000000002 0.7411749999999999
vt 0.23205 1
vt 0.133975 1
vt 0 1
vt 0.0669875 0.7411749999999999
vt 0 0.7411749999999999
vt 0.133975 0.7411749999999999
vt 0.0669875 1
vt 0.0490375 1
vt 0 0.7411749999999999
vt 0.23205 0.7411749999999999
vt 0.18301250000000002 1
vt 0.017950000000000008 1
vt 0 0.7411749999999999
vt 0.26795 0.7411749999999999
vt 0.25 1
vt 0 1
vt 0.017950000000000008 0.7411749999999999
vt 0.25 0.7411749999999999
vt 0.26795 1
vt 0 1
vt 0.0490375 0.7411749999999999
vt 0.18301250000000002 0.7411749999999999
vt 0.23205 1
vt 0.133975 1
vt 0 1
vt 0.0669875 0.7411749999999999
vn 0.218126001163518 0.7126368794504782 -0.6667606209603997
vn 0.5143382004535586 0.2411395567198939 -0.822987199012918
vn 0.6271486903688201 -0.17620065809323995 -0.7587080125161345
vn 0.6271486903688196 -0.5204326739191997 -0.5795121673321334
vn 0.5143382004535585 -0.8124636141017709 -0.27451610392631626
vn 0.21812600116351794 -0.9549300474386442 0.2013197757679104
vn 0.1197509073775286 0.5933115233403056 -0.7960158016357871
vn 0.2355659769146825 0.025401050533769294 -0.9715263543270519
vn 0.26436881506374216 -0.31482204776068773 -0.9115899340523459
vn 0.2643688150637424 -0.5661562497929322 -0.7807536297976436
vn 0.2355659769146826 -0.8103972432723681 -0.5364373016642092
vn 0.1197509073775286 -0.9923674803998385 0.02943644046305116
vn 1.6156798471956355e-16 0.5494391461985894 -0.8355337363772724
vn 1.8854400963002985e-16 -0.032439876784914 -0.9994736886952951
vn 1.6438232184043958e-16 -0.3448248278269918 -0.9386670539195918
vn 3.7962471105837394e-16 -0.5711276402145897 -0.8208612663434147
vn 3.265678041419672e-16 -0.8001141663858522 -0.5998477479733275
vn 1.6156798471956357e-16 -0.9995745156942106 -0.029168263141377555
vn -0.11975090737752853 0.5933115233403055 -0.7960158016357873
vn -0.23556597691468223 0.02540105053376901 -0.9715263543270519
vn -0.2643688150637418 -0.3148220477606878 -0.9115899340523459
vn -0.2643688150637422 -0.566156249792932 -0.7807536297976438
vn -0.2355659769146825 -0.8103972432723681 -0.5364373016642092
vn -0.1197509073775285 -0.9923674803998385 0.02943644046305105
vn -0.21812600116351802 0.7126368794504783 -0.6667606209603996
vn -0.5143382004535588 0.24113955671989412 -0.8229871990129176
vn -0.6271486903688207 -0.1762006580932397 -0.7587080125161343
vn -0.6271486903688205 -0.5204326739191998 -0.5795121673321322
vn -0.5143382004535587 -0.8124636141017705 -0.2745161039263166
vn -0.21812600116351796 -0.9549300474386442 0.20131977576791052
usemtl none
f 33/85/24 38/86/24 32/87/24
f 33/88/25 34/89/25 39/90/25 38/91/25
f 34/92/26 35/93/26 40/94/26 39/95/26
f 35/96/27 36/97/27 41/98/27 40/99/27
f 36/100/28 37/101/28 42/102/28 41/103/28
f 42/104/29 37/105/29 31/106/29
f 38/107/30 43/108/30 32/109/30
f 38/110/31 39/111/31 44/112/31 43/113/31
f 39/114/32 40/115/32 45/116/32 44/117/32
f 40/118/33 41/119/33 46/120/33 45/121/33
f 41/122/34 42/123/34 47/124/34 46/125/34
f 47/126/35 42/127/35 31/128/35
f 43/129/36 48/130/36 32/131/36
f 43/132/37 44/133/37 49/134/37 48/135/37
f 44/136/38 45/137/38 50/138/38 49/139/38
f 45/140/39 46/141/39 51/142/39 50/143/39
f 46/144/40 47/145/40 52/146/40 51/147/40
f 52/148/41 47/149/41 31/150/41
f 48/151/42 53/152/42 32/153/42
f 48/154/43 49/155/43 54/156/43 53/157/43
f 49/158/44 50/159/44 55/160/44 54/161/44
f 50/162/45 51/163/45 56/164/45 55/165/45
f 51/166/46 52/167/46 57/168/46 56/169/46
f 57/170/47 52/171/47 31/172/47
f 53/173/48 58/174/48 32/175/48
f 53/176/49 54/177/49 59/178/49 58/179/49
f 54/180/50 55/181/50 60/182/50 59/183/50
f 55/184/51 56/185/51 61/186/51 60/187/51
f 56/188/52 57/189/52 62/190/52 61/191/52
f 62/192/53 57/193/53 31/194/53
o cube
v 0.018750000000000003 0.5562499999999999 -0.30000000000000016
v 0.018750000000000003 0.3437499999999998 -0.3000000000000002
v 0.018750000000000003 0.5562499999999999 -0.26250000000000007
v 0.018750000000000003 0.3437499999999998 -0.2625000000000001
v -0.018750000000000003 0.3437499999999998 -0.3000000000000002
v -0.018750000000000003 0.5562499999999999 -0.30000000000000016
v -0.018750000000000003 0.3437499999999998 -0.2625000000000001
v -0.018750000000000003 0.5562499999999999 -0.26250000000000007
vt 0 1
vt 0.037500000000000006 1
vt 0.037500000000000006 0.9624999999999999
vt 0 0.9624999999999999
vt 0 1
vt 0.21250000000000013 1
vt 0.21250000000000013 0.9624999999999999
vt 0 0.9624999999999999
vt 0 1
vt 0.037500000000000006 1
vt 0.037500000000000006 0.9624999999999999
vt 0 0.9624999999999999
vt 0 1
vt 0.21250000000000013 1
vt 0.21250000000000013 0.9624999999999999
vt 0 0.9624999999999999
vt 0 1
vt 0.037500000000000006 1
vt 0.037500000000000006 0.7874999999999999
vt 0 0.7874999999999999
vt 0 1
vt 0.037500000000000006 1
vt 0.037500000000000006 0.7874999999999999
vt 0 0.7874999999999999
vn 0 -1 -2.220446049250313e-16
vn 1 0 0
vn 0 1 2.220446049250313e-16
vn -1 0 0
vn 0 2.220446049250313e-16 -1
vn 0 -2.220446049250313e-16 1
usemtl none
f 66/198/54 69/197/54 67/196/54 64/195/54
f 65/202/55 66/201/55 64/200/55 63/199/55
f 70/206/56 65/205/56 63/204/56 68/203/56
f 69/210/57 70/209/57 68/208/57 67/207/57
f 68/214/58 63/213/58 64/212/58 67/211/58
f 69/218/59 66/217/59 65/216/59 70/215/59
o cube
v 0.06874999999999998 0.29999999999999993 0.21874999999999997
v 0.06874999999999998 0.29999999999999993 -0.024999999999999994
v 0.06874999999999998 0.26874999999999993 0.21874999999999997
v 0.06874999999999998 0.26874999999999993 -0.024999999999999994
v 0.03749999999999999 0.29999999999999993 -0.024999999999999994
v 0.03749999999999999 0.29999999999999993 0.21874999999999997
v 0.03749999999999999 0.26874999999999993 -0.024999999999999994
v 0.03749999999999999 0.26874999999999993 0.21874999999999997
vt 0 1
vt 0.031249999999999986 1
vt 0.031249999999999986 0.96875
vt 0 0.96875
vt 0 1
vt 0.24374999999999997 1
vt 0.24374999999999997 0.96875
vt 0 0.96875
vt 0 1
vt 0.031249999999999986 1
vt 0.031249999999999986 0.96875
vt 0 0.96875
vt 0 1
vt 0.24374999999999997 1
vt 0.24374999999999997 0.96875
vt 0 0.96875
vt 0 1
vt 0.031249999999999986 1
vt 0.031249999999999986 0.7562500000000001
vt 0 0.7562500000000001
vt 0 1
vt 0.031249999999999986 1
vt 0.031249999999999986 0.7562500000000001
vt 0 0.7562500000000001
vn 0 0 -1
vn 1 0 0
vn 0 0 1
vn -1 0 0
vn 0 1 0
vn 0 -1 0
usemtl none
f 74/222/60 77/221/60 75/220/60 72/219/60
f 73/226/61 74/225/61 72/224/61 71/223/61
f 78/230/62 73/229/62 71/228/62 76/227/62
f 77/234/63 78/233/63 76/232/63 75/231/63
f 76/238/64 71/237/64 72/236/64 75/235/64
f 77/242/65 74/241/65 73/240/65 78/239/65